<svg version="1" xmlns="http://www.w3.org/2000/svg" width="933.333" height="933.333" viewBox="0 0 700 700"><path d="M0 350v350h700V0H0v350zm670 0v320l-319.7-.2-319.8-.3-.3-319.8L30 30h640v320z"/><path d="M372.6 211.6c-14.9 2.9-35.7 11.5-49.5 20.4-3.4 2.2-6.6 4-7.1 4s-1.6-1.2-2.4-2.8c-2.3-4.4-11.8-12.8-18.4-16.1-6.3-3.2-16.5-6.1-21.4-6.1H271v69.7c0 38.4.3 101.2.7 139.6l.6 69.7 26.1-.2 26.1-.3.5-107 .5-107 8.5-5.8c18-12.4 26.1-15.7 37.9-15.7 11.1 0 17.3 4.5 21.8 16 1.6 4.1 1.8 10 2.1 72.2l.3 67.8H449V276.2l7.8-5.4c18.3-12.9 27.5-16.8 38.9-16.8 9.6 0 16.4 3.5 20 10.4 4.9 9.5 4.7 4.6 5 118.8l.4 106.8h52l-.3-114.8-.3-114.7-2.3-8c-7.7-27.5-23.1-39.8-52.8-42.1-10.5-.9-22.2.9-35 5.1-10.9 3.6-26.8 11.1-35.9 16.9-3 2-5.9 3.6-6.4 3.6-.4 0-1.2-1-1.8-2.3-.6-1.2-3.2-4.6-5.8-7.4-11.5-12.8-37.4-19.2-59.9-14.7zm-139.4 3.9c-8.9 2.8-27.3 11.8-36 17.4-3.4 2.3-6.4 4.1-6.6 4.1-.2 0-2.3-4.5-4.6-10l-4.3-10H147l.2 136.2.3 136.3h52l.3-106.7.2-106.6 12.8-8.5c13-8.5 19.8-11.9 26.5-13.1l3.7-.7v-20.4c0-15.8-.3-20.5-1.2-20.5-.7.1-4.6 1.2-8.6 2.5z"/><path d="M396.2 464.2l.3 25.3 26.3.3 26.2.2v-51h-53l.2 25.2z"/></svg>